<?xml version="1.0" standalone="no"?>
<!DOCTYPE svg PUBLIC "-//W3C//DTD SVG 20010904//EN"
 "http://www.w3.org/TR/2001/REC-SVG-20010904/DTD/svg10.dtd">
<svg version="1.0" xmlns="http://www.w3.org/2000/svg"
 width="542.000000pt" height="543.000000pt" viewBox="0 0 542.000000 543.000000"
 preserveAspectRatio="xMidYMid meet">

<g transform="translate(0.000000,543.000000) scale(0.100000,-0.100000)"
fill="#000000" stroke="none">
<path d="M2535 5414 c-261 -26 -468 -66 -655 -127 -434 -142 -799 -371 -1120
-703 -416 -430 -666 -967 -741 -1589 -16 -136 -13 -459 6 -605 73 -565 283
-1033 661 -1470 355 -411 882 -724 1424 -845 332 -75 728 -85 1060 -29 405 70
826 249 1142 487 550 414 915 983 1047 1632 79 388 72 810 -18 1181 -125 507
-375 945 -747 1304 -508 490 -1128 749 -1829 764 -104 2 -208 2 -230 0z m415
-2699 l0 -1335 -92 0 -93 0 3 1335 2 1335 90 0 90 0 0 -1335z m-618 1098 l178
-178 0 -257 0 -258 -300 0 -300 0 0 180 0 180 -315 0 -315 0 0 -755 0 -755
315 0 315 0 0 180 0 180 298 -2 297 -3 3 -255 2 -256 -177 -177 -178 -177
-566 0 -565 0 -172 173 -172 172 0 920 0 920 172 172 173 173 565 0 565 0 177
-177z m2398 -78 l0 -255 -460 0 c-453 0 -460 0 -460 -20 0 -11 0 -114 0 -230
0 -115 0 -219 0 -230 0 -20 7 -20 390 -20 l390 0 0 -255 0 -255 -390 0 -390 0
0 -250 0 -250 465 0 465 0 0 -255 0 -255 -765 0 -765 0 0 1265 0 1265 760 0
760 0 0 -255z"/>
</g>
</svg>